<svg xmlns="http://www.w3.org/2000/svg" viewBox="0 0 340 484"><defs><style>.cls-1{fill:#bf6836;}.cls-2{fill:#9d85ff;}</style></defs><g id="location-tag"><path class="cls-1" d="M118.26,204a71.41,71.41,0,0,1,11-26.53c13.3-19.55,32.61-26.54,39.48-28.67,0,0,37.12-3.28,56.35,57.1,0,0,3.8,15.62-14.88,18.36,0,0-12.34-1.9-15.29-4,0,0-14.78-12.24-43.91-.42,0,0-11.4,4.64-18.58,3.8a16.67,16.67,0,0,1-8.79-4C117.09,213.87,118.14,204.94,118.26,204Z"/><ellipse class="cls-1" cx="144.64" cy="107.99" rx="18.79" ry="28.92" transform="translate(-21.49 37.39) rotate(-13.72)"/><ellipse class="cls-1" cx="191.51" cy="107.99" rx="28.92" ry="18.79" transform="matrix(0.27, -0.96, 0.96, 0.27, 35.19, 262.59)"/><ellipse class="cls-1" cx="225.32" cy="146.62" rx="25.4" ry="16.5" transform="translate(-14.32 268.44) rotate(-60)"/><ellipse class="cls-1" cx="114.28" cy="146.62" rx="16.5" ry="25.4" transform="translate(-54.1 67.85) rotate(-26.99)"/><path class="cls-2" d="M317.82,87.2C315.25,82.71,266.54.8,171.28-.06,108.42-.63,54.51,34.36,25.44,80.82-12.79,141.91-8.35,223.29,37,285.28L153.56,471.75s4,11,15.93,12.15c0,0,6.63,2.23,13.93-14.25L309.57,274C347.41,217.4,350.74,144.85,317.82,87.2Zm-147.42,183a111.3,111.3,0,1,1,111.3-111.3A111.3,111.3,0,0,1,170.4,270.24Z"/></g></svg>